<?xml version="1.0" encoding="utf-8"?>
<!-- Generator: Adobe Illustrator 16.0.0, SVG Export Plug-In . SVG Version: 6.00 Build 0)  -->
<!DOCTYPE svg PUBLIC "-//W3C//DTD SVG 1.1//EN" "http://www.w3.org/Graphics/SVG/1.1/DTD/svg11.dtd">
<svg version="1.1" id="Layer_1" xmlns="http://www.w3.org/2000/svg" xmlns:xlink="http://www.w3.org/1999/xlink" x="0px" y="0px"
	 width="221.826px" height="227.64px" viewBox="0 0 221.826 227.64" enable-background="new 0 0 221.826 227.64"
	 xml:space="preserve">
<g>
	<g>
		<path d="M165.211,19.11h-4.486V11.7h11.701v5.2c2.211-3.641,5.59-6.046,10.01-6.046c4.811,0,8.842,2.926,10.791,7.28
			c1.885-4.42,6.564-7.28,11.375-7.28c3.771,0,7.477,1.562,10.012,4.421c2.729,3.186,2.729,6.63,2.729,10.596v13.131h4.484v7.41
			h-16.898v-7.41h4.482V27.82c0-2.274,0-4.29-1.039-6.305c-1.301-1.886-3.443-2.86-5.654-2.86c-2.146,0-4.484,0.91-5.852,2.601
			c-1.625,2.08-1.625,4.03-1.625,6.564v11.182h4.484v7.41h-16.9v-7.41h4.484v-10.66c0-2.08,0-4.681-1.039-6.501
			c-1.105-2.08-3.381-3.186-5.721-3.186c-2.209,0-4.098,0.78-5.525,2.535c-1.754,2.146-1.885,4.42-1.885,7.085v10.727h4.484v7.41
			h-16.9v-7.41h4.484V19.11H165.211z"/>
	</g>
	<g>
		<path d="M127.09,41.731c-2.535,3.835-6.631,5.59-11.182,5.59c-9.943,0-17.811-8.256-17.811-18.069
			c0-10.076,8.061-18.461,18.199-18.461c4.484,0,8.387,2.08,10.791,5.85v-4.939h12.416v7.41h-4.355v19.892h4.355v7.41h-12.416
			L127.09,41.731L127.09,41.731z M127.221,28.86c0-5.72-4.746-10.335-10.467-10.335c-5.914,0-10.467,4.875-10.467,10.727
			c0,5.653,4.746,10.335,10.336,10.335C122.604,39.587,127.221,34.775,127.221,28.86z"/>
	</g>
	<g>
		<path d="M73.957,39.002h4.484v7.41H61.477v-7.41h4.549V19.11h-4.484V11.7h12.416V39.002z M73.957,8.385h-7.932V0h7.932V8.385z"/>
	</g>
	<g>
		<path d="M29.057,41.212c-2.602,3.899-6.76,5.72-11.375,5.72C7.994,46.931,0,38.677,0,29.056c0-9.686,7.801-17.94,17.613-17.94
			c4.42,0,8.711,2.08,11.441,5.655V7.41h-4.551V0.001h12.479v39.002h4.486v7.41H29.053v-5.201H29.057z M29.252,28.927
			c0-5.721-4.746-10.4-10.4-10.4c-5.916,0-10.596,4.745-10.596,10.66c0,5.72,4.68,10.466,10.465,10.466
			C24.637,39.651,29.252,34.775,29.252,28.927z"/>
	</g>
	<g>
		<path d="M149.258,101.319c-2.602,3.9-6.762,5.722-11.375,5.722c-9.688,0-17.684-8.257-17.684-17.875
			c0-9.687,7.803-17.94,17.615-17.94c4.42,0,8.711,2.08,11.441,5.654V67.52h-4.553v-7.411h12.48v39.002h4.484v7.41h-12.416v-5.201
			L149.258,101.319L149.258,101.319z M149.451,89.034c0-5.721-4.744-10.399-10.398-10.399c-5.916,0-10.598,4.745-10.598,10.66
			c0,5.72,4.682,10.465,10.467,10.465C144.838,99.76,149.451,94.885,149.451,89.034z"/>
	</g>
	<g>
		<path d="M65.963,79.219h-4.484v-7.41h12.414v4.939c2.08-3.835,5.979-5.721,10.271-5.721c3.771,0,7.477,1.561,10.012,4.29
			c2.857,3.187,2.926,6.24,2.926,10.205v13.586h4.484v7.41h-16.9v-7.41h4.484V87.864c0-2.146,0-4.354-1.365-6.239
			c-1.432-1.887-3.771-2.796-6.109-2.796c-2.404,0-4.875,0.976-6.305,2.926c-1.496,1.95-1.496,4.938-1.496,7.279v10.075h4.486v7.41
			h-16.9v-7.41h4.484L65.963,79.219L65.963,79.219z"/>
	</g>
	<g>
		<path d="M0,89.034c0-10.141,8.256-18.266,18.328-18.266c10.014,0,18.072,8.32,18.072,18.2c0,10.141-8.061,18.461-18.266,18.461
			C7.994,107.43,0,99.045,0,89.034z M28.602,89.165c0-5.655-4.486-10.597-10.271-10.597c-5.721,0-10.529,4.615-10.529,10.4
			c0,5.721,4.42,10.66,10.336,10.66C23.922,99.63,28.602,94.949,28.602,89.165z"/>
	</g>
	<g>
		<g>
			<path d="M195.309,162.594h8.061v4.031h-12.352v-30.098h-6.564v-4.029h6.564v-12.285h4.291v12.285h7.539v4.029h-7.539V162.594z"/>
		</g>
	</g>
	<g>
		<g>
			<path d="M92.727,219.515c-2.926,5.068-8.062,8.125-13.977,8.125c-5.396,0-11.637-3.381-14.625-8.125
				c-1.756-2.797-2.99-6.436-2.99-9.816c0-9.49,7.932-17.68,17.422-17.68c5.914,0,11.438,3.119,14.17,8.449v-16.121h-5.721v-4.029
				h10.01v42.381h5.721v4.031h-10.01V219.515L92.727,219.515z M92.855,209.699c0-7.541-6.176-13.586-13.65-13.586
				c-7.67,0-13.779,6.24-13.779,13.846c0,7.541,6.307,13.65,13.779,13.65C86.877,223.609,92.855,217.369,92.855,209.699z"/>
		</g>
	</g>
	<g>
		<g>
			<path d="M31.396,221.01c-2.211,4.16-6.5,6.631-11.377,6.631c-5.004,0-9.555-3.186-11.635-6.631
				c-1.105-1.82-1.754-4.355-1.754-8.385v-15.99H0.908v-4.031H10.92V211c0,3.184,0.062,6.238,2.145,8.969
				c2.016,2.666,4.812,3.898,8.191,3.641c3.379-0.26,5.979-1.689,7.67-3.705c2.34-2.795,2.471-5.266,2.471-8.775v-14.494h-5.721
				v-4.029h10.01v30.096h5.785v4.031H31.396V221.01L31.396,221.01z"/>
		</g>
	</g>
	<g>
		<g>
			<path d="M157.98,141.144c-0.131-3.445-3.445-5.721-7.02-5.721c-3.445,0-6.695,2.08-6.695,5.785c0,4.291,4.094,5.33,7.539,6.045
				c2.666,0.52,5.396,1.104,7.734,2.535c2.73,1.561,4.227,4.354,4.227,7.477c0,2.209-0.715,3.77-1.494,5.266
				c-1.625,3.119-5.98,5.004-9.945,5.004c-4.096,0-7.41-1.494-9.488-5.004v4.094h-3.514v-9.75h3.514
				c0.389,4.16,4.094,7.215,8.709,7.215c3.771,0,7.408-2.535,7.408-6.5c0-4.68-4.027-5.523-7.799-6.305
				c-2.666-0.586-5.332-1.105-7.672-2.535c-2.535-1.625-4.029-4.225-4.029-7.215c0-2.34,0.455-4.16,1.754-5.852
				c2.018-2.6,5.854-3.77,9.037-3.77c3.186,0,6.045,1.104,7.734,3.77V132.5h3.51v8.645H157.98z"/>
		</g>
	</g>
	<g>
		<g>
			<path d="M176.033,209.894c0-9.945,8.062-17.875,18.008-17.875c9.686,0,17.744,7.93,17.744,17.549
				c0,9.947-7.863,18.072-17.877,18.072C184.031,227.64,176.033,219.644,176.033,209.894z M207.494,209.83
				c0-7.41-5.979-13.586-13.52-13.586s-13.652,6.045-13.652,13.521c0,7.408,5.98,13.648,13.586,13.648
				C201.449,223.414,207.494,217.304,207.494,209.83z"/>
		</g>
	</g>
	<g>
		<g>
			<path d="M142.807,222.699h5.721v4.031h-15.859v-4.031h5.85v-26.064h-5.719v-4.029h10.01L142.807,222.699L142.807,222.699z
				 M142.807,187.013h-4.291v-6.695h4.291V187.013z"/>
		</g>
	</g>
	<g>
		<path d="M197.379,96.444c0.26,3.12,2.34,5.2,5.59,5.2c2.404,0,4.746-1.689,4.746-4.29c0-3.445-3.25-4.03-5.916-4.745
			c-6.045-1.561-12.678-3.444-12.678-11.051c0-6.63,5.592-10.466,11.768-10.466c3.121,0,5.916,0.649,7.865,3.12v-2.404h5.85v9.425
			h-7.67c-0.129-2.47-2.016-4.095-4.484-4.095c-2.145,0-4.42,1.234-4.42,3.64c0,3.25,3.188,3.967,5.719,4.552
			c6.24,1.43,12.938,3.38,12.938,11.18c0,7.021-5.914,10.921-12.414,10.921c-3.51,0-6.695-1.106-8.971-3.771v2.86h-6.045V96.444
			H197.379z"/>
	</g>
</g>
</svg>
